<?xml version="1.0" encoding="iso-8859-1"?>
<!-- Generator: Adobe Illustrator 19.0.0, SVG Export Plug-In . SVG Version: 6.00 Build 0)  -->
<svg version="1.1" id="Capa_1" xmlns="http://www.w3.org/2000/svg" xmlns:xlink="http://www.w3.org/1999/xlink" x="0px" y="0px"
	 viewBox="0 0 511.999 511.999" style="enable-background:new 0 0 511.999 511.999;" xml:space="preserve">
<circle style="fill:#1EE292;" cx="128.43" cy="158.98" r="103.76"/>
<path style="fill:#0BD67F;" d="M232.191,158.979c0,57.305-46.46,103.755-103.765,103.755c-5.614,0-11.124-0.445-16.5-1.313
	c49.469-7.888,87.265-50.751,87.265-102.442s-37.797-94.564-87.265-102.452c5.376-0.868,10.886-1.313,16.5-1.313
	C185.731,55.214,232.191,101.674,232.191,158.979z"/>
<path style="fill:#276FD8;" d="M511.882,327.936l-8.595-56.89c-0.76-5.032-5.085-8.752-10.173-8.752h-31.467
	c-7.351-23.073-28.171-39.878-53.054-41.536c-2.041-0.136-4.083-0.272-6.124-0.408c-63.207-4.214-126.772-11.253-189.847-7.048
	c-16.356,1.09-32.713,2.181-49.069,3.271c-20.924,1.395-41.848,2.79-62.773,4.185c-24.883,1.659-45.703,18.463-53.054,41.536h-28.84
	c-5.089,0-9.413,3.72-10.173,8.752l-8.595,56.89c-0.94,6.224,3.879,11.826,10.173,11.826h26.585l-6.306,49.603
	c-4.548,35.775,23.331,67.421,59.393,67.421h53.925c12.145,0,24.204-2.036,35.676-6.024l71.12-24.723h8.004l71.12,24.723
	c11.472,3.988,23.531,6.024,35.676,6.024h53.925c36.063,0,63.941-31.647,59.393-67.421l-6.306-49.603h29.211
	C508.004,339.762,512.823,334.16,511.882,327.936z"/>
<path style="fill:#0C5CBC;" d="M419.407,456.784h-19.446c19.684-13.233,31.635-36.866,28.379-62.423l-16.117-126.83
	c-2.688-21.09-15.29-38.882-32.896-48.724l29.268,1.954c28.575,1.902,51.805,23.778,55.413,52.188l14.792,116.419
	C483.349,425.138,455.477,456.784,419.407,456.784z"/>
<g>
	<path style="fill:#57616D;" d="M96.844,166.31c5.006-14.115,9.61-30.132,14.515-44.047c1.402-3.904,3.704-5.906,7.608-5.906
		c4.105,0,8.71,4.104,8.71,8.409c0,1.001-0.301,2.102-0.701,2.903l-20.522,57.862c-2.103,5.907-5.305,8.81-9.71,8.81
		c-4.105,0-7.108-2.703-9.01-8.009L66.51,127.468c-0.3-1.101-0.5-2.202-0.5-3.203c0-5.305,2.703-8.009,8.008-8.009
		c4.004,0,6.708,2.002,8.009,5.907L96.844,166.31z"/>
	<path style="fill:#57616D;" d="M131.682,124.765c0-5.706,3.403-8.309,9.91-8.309h19.921c16.819,0,26.128,11.412,26.128,23.325
		c0,7.608-3.704,15.317-11.812,20.522l9.71,21.223c0.701,1.702,1.301,3.504,1.301,5.205c0,4.505-2.403,7.708-7.608,7.708
		c-2.803,0-5.506-0.901-7.307-4.404l-12.614-25.628h-11.612v21.122c0,5.907-2.603,8.81-7.908,8.81c-5.406,0-8.109-2.903-8.109-8.81
		L131.682,124.765L131.682,124.765z M147.699,132.473v16.017h14.516c5.605,0,9.01-4.505,9.01-8.709c0-3.704-2.704-7.308-9.01-7.308
		H147.699z"/>
</g>
<g>
	<path style="fill:#4992E8;" d="M283.23,270.048h-65.09c-4.282,0-7.754-3.471-7.754-7.754c0-4.282,3.472-7.754,7.754-7.754h65.091
		c4.282,0,7.754,3.471,7.754,7.754C290.984,266.577,287.513,270.048,283.23,270.048z"/>
	<path style="fill:#4992E8;" d="M342.092,347.905c-2.19,0-4.366-0.922-5.899-2.718c-2.781-3.256-2.396-8.15,0.86-10.931
		l37.512-32.041c3.256-2.781,8.151-2.396,10.931,0.86c2.781,3.256,2.396,8.15-0.86,10.931l-37.512,32.041
		C345.665,347.295,343.875,347.905,342.092,347.905z"/>
	<path style="fill:#4992E8;" d="M325.259,410.783c-2.19,0-4.366-0.922-5.899-2.718c-2.781-3.256-2.396-8.15,0.86-10.931
		l93.688-80.025c3.256-2.781,8.15-2.396,10.931,0.86c2.781,3.256,2.396,8.15-0.86,10.931l-93.688,80.025
		C328.831,410.173,327.04,410.783,325.259,410.783z"/>
	<path style="fill:#4992E8;" d="M109.676,347.905c-2.19,0-4.366-0.922-5.899-2.718c-2.781-3.256-2.396-8.15,0.86-10.931
		l37.512-32.041c3.256-2.781,8.15-2.396,10.931,0.86c2.781,3.256,2.396,8.15-0.86,10.931l-37.512,32.041
		C113.248,347.295,111.458,347.905,109.676,347.905z"/>
	<path style="fill:#4992E8;" d="M92.841,410.783c-2.19,0-4.365-0.922-5.899-2.718c-2.781-3.256-2.396-8.15,0.86-10.931
		l93.688-80.025c3.256-2.781,8.15-2.396,10.931,0.86c2.781,3.256,2.396,8.15-0.86,10.931l-93.688,80.025
		C96.413,410.173,94.623,410.783,92.841,410.783z"/>
</g>
<g>
</g>
<g>
</g>
<g>
</g>
<g>
</g>
<g>
</g>
<g>
</g>
<g>
</g>
<g>
</g>
<g>
</g>
<g>
</g>
<g>
</g>
<g>
</g>
<g>
</g>
<g>
</g>
<g>
</g>
</svg>
