<svg id="icons" enable-background="new 0 0 64 64" height="512" viewBox="0 0 64 64" width="512" xmlns="http://www.w3.org/2000/svg"><g fill="#ffce54"><path d="m35.5 44.67c3.51 1.39 6 4.82 6 8.83 0 5.25-4.261 9.5-9.5 9.5-5.25 0-9.5-4.25-9.5-9.5 0-4.01 2.479-7.44 6-8.83 1.09-.43 2.27-.67 3.5-.67 1.229 0 2.41.24 3.5.67z"/><path d="m43.5 2c1.1 0 2 .9 2 2 0 1.11-.9 2-2 2-1.11 0-2-.89-2-2 0-1.1.89-2 2-2z"/><path d="m36.5 12c1.6 0 2.91 1.26 2.989 2.85-1.899.08-3.909.13-5.989.14.01-1.65 1.34-2.99 3-2.99z"/><path d="m25.42 9.11c-.92 1.15-2.33 1.89-3.92 1.89-1.38 0-2.63-.56-3.53-1.46h-.01c-.9-.9-1.46-2.16-1.46-3.54 0-2.76 2.229-5 5-5 2.76 0 5 2.24 5 5 0 1.17-.4 2.26-1.08 3.11z"/></g><path d="m36.5 12c-1.66 0-2.99 1.34-3 2.99-.49.01-1 .01-1.5.01-13.53 0-24.5-1.34-24.5-3 0-1.01 4.14-1.91 10.46-2.46h.01c.9.9 2.15 1.46 3.53 1.46 1.59 0 3-.74 3.92-1.89 2.1-.07 4.3-.11 6.58-.11 13.529 0 24.5 1.35 24.5 3 0 1.34-7.141 2.47-17.011 2.85-.079-1.59-1.389-2.85-2.989-2.85z" fill="#da4453"/><path d="m39.489 14.85c9.87-.38 17.011-1.51 17.011-2.85v7l-21 20v5.67c-1.09-.43-2.271-.67-3.5-.67-1.23 0-2.41.24-3.5.67v-5.67l-21-20v-7c0 1.66 10.97 3 24.5 3 .5 0 1.01 0 1.5-.01 2.08-.01 4.09-.06 5.989-.14z" fill="#ed5565"/><path d="m33.53 3.996c-.553 0-1.005-.447-1.005-1s.442-1 .994-1h.011c.552 0 1 .447 1 1s-.448 1-1 1z"/><path d="m51.53 8.002c-.553 0-1.005-.447-1.005-1s.442-1 .994-1h.011c.552 0 1 .447 1 1s-.448 1-1 1z"/><path d="m10.53 7.996c-.553 0-1.005-.447-1.005-1s.442-1 .994-1h.011c.552 0 1 .447 1 1s-.448 1-1 1z"/><path d="m28.5 45.666c-.553 0-1-.447-1-1v-5.67c0-.553.447-1 1-1s1 .447 1 1v5.67c0 .553-.447 1-1 1z"/><path d="m35.5 45.666c-.553 0-1-.447-1-1v-5.67c0-.553.447-1 1-1s1 .447 1 1v5.67c0 .553-.447 1-1 1z"/><path d="m28.5 39.996c-.248 0-.496-.092-.689-.275l-21-19.994c-.4-.381-.416-1.015-.035-1.414.384-.399 1.016-.413 1.414-.035l21 19.994c.4.381.416 1.015.035 1.414-.198.206-.461.31-.725.31z"/><path d="m35.5 39.996c-.264 0-.527-.104-.725-.311-.381-.399-.365-1.033.035-1.414l21-19.994c.399-.379 1.031-.365 1.414.035.381.399.365 1.033-.035 1.414l-21 19.994c-.193.184-.441.276-.689.276z"/><path d="m32 16.002c-6.583 0-12.778-.314-17.445-.887-7.433-.91-8.055-2.084-8.055-3.113 0-.867 0-2.48 11.385-3.457.536-.062 1.033.36 1.081.91.048.551-.36 1.035-.91 1.082-5.217.447-7.898 1.051-9.031 1.475 2.403.925 10.669 1.99 22.976 1.99 12.351 0 20.631-1.073 23.002-2-2.371-.927-10.651-2-23.002-2-2.254 0-4.458.036-6.552.108-.562.024-1.015-.413-1.033-.965-.02-.552.413-1.015.965-1.033 2.116-.073 4.344-.11 6.62-.11 6.583 0 12.778.314 17.445.887 7.433.91 8.055 2.084 8.055 3.113s-.622 2.203-8.055 3.113c-4.668.573-10.863.887-17.446.887z"/><path d="m56.5 20.002c-.553 0-1-.447-1-1v-7c0-.553.447-1 1-1s1 .447 1 1v7c0 .553-.447 1-1 1z"/><path d="m7.5 20.002c-.553 0-1-.447-1-1v-7c0-.553.447-1 1-1s1 .447 1 1v7c0 .553-.447 1-1 1z"/><path d="m33.5 16.002c-.553 0-1-.447-1-1 0-2.206 1.794-4 4-4 2.139 0 3.894 1.673 3.996 3.808.026.552-.399 1.021-.951 1.047-.546.026-1.021-.399-1.047-.951-.051-1.067-.929-1.903-1.998-1.903-1.103 0-2 .897-2 2 0 .552-.447.999-1 .999z"/><path d="m43.5 7.002c-1.654 0-3-1.346-3-3s1.346-3 3-3 3 1.346 3 3-1.346 3-3 3zm0-4c-.552 0-1 .448-1 1s.448 1 1 1 1-.448 1-1-.448-1-1-1z"/><path d="m21.5 12.002c-3.309 0-6-2.691-6-6s2.691-6 6-6 6 2.691 6 6-2.691 6-6 6zm0-10c-2.206 0-4 1.794-4 4s1.794 4 4 4 4-1.794 4-4-1.794-4-4-4z"/><path d="m32 63.998c-5.79 0-10.5-4.71-10.5-10.5s4.71-10.5 10.5-10.5 10.5 4.71 10.5 10.5-4.71 10.5-10.5 10.5zm0-19c-4.687 0-8.5 3.813-8.5 8.5s3.813 8.5 8.5 8.5 8.5-3.813 8.5-8.5-3.813-8.5-8.5-8.5z"/><path d="m32 52.996h-1.5c-.553 0-1-.447-1-1s.447-1 1-1h1.5c.553 0 1 .447 1 1s-.447 1-1 1z"/><path d="m32 57.992c-.553 0-1-.447-1-1v-4.996c0-.553.447-1 1-1s1 .447 1 1v4.996c0 .553-.447 1-1 1z"/><path d="m33.5 57.992h-3c-.553 0-1-.447-1-1s.447-1 1-1h3c.553 0 1 .447 1 1s-.447 1-1 1z"/><path d="m32.03 49.996c-.553 0-1.005-.447-1.005-1s.442-1 .994-1h.011c.552 0 1 .447 1 1s-.448 1-1 1z"/></svg>